<?xml version="1.0" encoding="UTF-8" standalone="no"?>
<!-- Created with Inkscape (http://www.inkscape.org/) -->

<svg
   xmlns:dc="http://purl.org/dc/elements/1.1/"
   xmlns:cc="http://creativecommons.org/ns#"
   xmlns:rdf="http://www.w3.org/1999/02/22-rdf-syntax-ns#"
   xmlns:svg="http://www.w3.org/2000/svg"
   xmlns="http://www.w3.org/2000/svg"
   xmlns:sodipodi="http://sodipodi.sourceforge.net/DTD/sodipodi-0.dtd"
   xmlns:inkscape="http://www.inkscape.org/namespaces/inkscape"
   width="35.941994mm"
   height="36.529037mm"
   viewBox="0 0 35.941994 36.529037"
   version="1.1"
   id="svg8"
   inkscape:version="0.92.4 (5da689c313, 2019-01-14)"
   sodipodi:docname="eec.svg">
  <defs
     id="defs2" />
  <sodipodi:namedview
     id="base"
     pagecolor="#ffffff"
     bordercolor="#666666"
     borderopacity="1.0"
     inkscape:pageopacity="0.0"
     inkscape:pageshadow="2"
     inkscape:zoom="0.47823359"
     inkscape:cx="1226.3925"
     inkscape:cy="-149.77356"
     inkscape:document-units="mm"
     inkscape:current-layer="layer1"
     showgrid="false"
     inkscape:snap-global="false"
     inkscape:window-width="1920"
     inkscape:window-height="1017"
     inkscape:window-x="1912"
     inkscape:window-y="-8"
     inkscape:window-maximized="1"
     fit-margin-top="0"
     fit-margin-left="0"
     fit-margin-right="0"
     fit-margin-bottom="0" />
  <metadata
     id="metadata5">
    <rdf:RDF>
      <cc:Work
         rdf:about="">
        <dc:format>image/svg+xml</dc:format>
        <dc:type
           rdf:resource="http://purl.org/dc/dcmitype/StillImage" />
        <dc:title></dc:title>
      </cc:Work>
    </rdf:RDF>
  </metadata>
  <g
     inkscape:label="Layer 1"
     inkscape:groupmode="layer"
     id="layer1"
     transform="translate(-55.1605,-59.536833)">
    <path
       style="fill:#000000;stroke:none;stroke-width:0.26458332px;stroke-linecap:butt;stroke-linejoin:miter;stroke-opacity:1"
       d="M 65.967594,59.536833 55.258168,70.148591 55.1605,85.307872 66.212021,96.065869 81.126874,95.821442 91.102492,85.16111 l -10.464994,9.389091 -13.98571,-0.04909 -9.394775,-9.119341 8.83357,-0.197919 0.414962,8.388117 0.0925,-8.399486 9.247496,-0.207222 -9.242329,-0.290938 0.04754,-14.076661 9.145693,-0.20464 -9.15448,-0.288353 -0.429948,-8.269264 -0.05323,8.253762 -8.811347,-0.277503 8.913151,-9.00307 14.425993,0.04858 10.4159,9.095568 L 81.126866,59.6836 Z m 14.474568,4.621425 -0.146762,19.493899 0.440283,7.596954 0.09767,-7.555611 0.04909,-12.313978 z m -14.286468,6.450253 -0.09043,14.048753 -8.851141,-0.278535 -0.588076,0.0801 -0.04651,-13.63586 z"
       id="path3726"
       inkscape:connector-curvature="0" />
  </g>
</svg>
